<?xml version="1.0" encoding="UTF-8" standalone="no"?>
<!DOCTYPE svg PUBLIC "-//W3C//DTD SVG 1.1//EN" "http://www.w3.org/Graphics/SVG/1.1/DTD/svg11.dtd">
<svg width="100%" height="100%" viewBox="0 0 150 150" version="1.1" xmlns="http://www.w3.org/2000/svg" xmlns:xlink="http://www.w3.org/1999/xlink" xml:space="preserve" xmlns:serif="http://www.serif.com/" style="fill-rule:evenodd;clip-rule:evenodd;stroke-linecap:round;stroke-linejoin:round;stroke-miterlimit:1.5;">
    <g transform="matrix(1,0,0,1.172205,-1.820876,-14.781578)">
        <path d="M140.769,50.838L140.769,114.82C140.769,116.39 139.277,117.663 137.436,117.663L17.977,117.663C16.136,117.663 14.643,116.39 14.643,114.82L14.643,50.838C14.643,49.267 16.136,47.994 17.977,47.994L137.436,47.994C139.277,47.994 140.769,49.267 140.769,50.838ZM137.436,50.838L17.977,50.838L17.977,114.82L137.436,114.82L137.436,50.838Z" style="fill:rgb(252,54,91);"/>
    </g>
    <g transform="matrix(1.5,0,0,1.5,-40.362212,-31.48169)">
        <circle cx="102.745" cy="62.321" r="2.474" style="fill:rgb(252,54,91);"/>
    </g>
    <g transform="matrix(1.5,0,0,1.5,-40.362212,-3.48169)">
        <circle cx="102.745" cy="62.321" r="2.474" style="fill:rgb(252,54,91);"/>
    </g>
    <g transform="matrix(1,0,0,1,0.885309,-11.340624)">
        <path d="M24.263,73.341L95.604,73.341" style="fill:none;stroke:rgb(252,54,91);stroke-width:4.17px;"/>
    </g>
    <g transform="matrix(1,0,0,1,0.885309,16.659376)">
        <path d="M24.263,73.341L95.604,73.341" style="fill:none;stroke:rgb(252,54,91);stroke-width:4.17px;"/>
    </g>
    <g transform="matrix(1,0,0,1,0.885309,30.659376)">
        <path d="M24.263,73.341L95.604,73.341" style="fill:none;stroke:rgb(252,54,91);stroke-width:4.17px;"/>
    </g>
    <g transform="matrix(1,0,0,1,0.885309,2.659376)">
        <path d="M24.263,73.341L95.604,73.341" style="fill:none;stroke:rgb(252,54,91);stroke-width:4.17px;"/>
    </g>
    <g transform="matrix(1.453726,0,0,1.453726,-47.370898,-37.820788)">
        <path d="M110.837,75C112.448,75 113.755,76.308 113.755,77.919C113.755,79.529 112.448,80.837 110.837,80.837C109.226,80.837 107.918,79.529 107.918,77.919C107.918,76.308 109.226,75 110.837,75ZM110.837,76.459C111.642,76.459 112.296,77.113 112.296,77.919C112.296,78.724 111.642,79.378 110.837,79.378C110.031,79.378 109.377,78.724 109.377,77.919C109.377,77.113 110.031,76.459 110.837,76.459Z" style="fill:rgb(252,54,91);"/>
    </g>
    <g transform="matrix(1.453726,0,0,1.453726,-47.370898,-9.212586)">
        <path d="M110.837,75C112.448,75 113.755,76.308 113.755,77.919C113.755,79.529 112.448,80.837 110.837,80.837C109.226,80.837 107.918,79.529 107.918,77.919C107.918,76.308 109.226,75 110.837,75ZM110.837,76.459C111.642,76.459 112.296,77.113 112.296,77.919C112.296,78.724 111.642,79.378 110.837,79.378C110.031,79.378 109.377,78.724 109.377,77.919C109.377,77.113 110.031,76.459 110.837,76.459Z" style="fill:rgb(252,54,91);"/>
    </g>
    <g transform="matrix(1.120141,0,0,1,-3.381024,-12.867912)">
        <path d="M16.651,61.861C15.798,60.908 15.271,59.59 15.271,58.135L15.271,47.6C15.271,44.693 17.378,42.332 19.973,42.332L65.272,42.332C67.867,42.332 69.974,44.693 69.974,47.6L69.974,56.637L16.651,56.637L16.651,61.861Z" style="fill:rgb(252,54,91);"/>
    </g>
</svg>
