<?xml version="1.0" encoding="UTF-8" standalone="no"?>
<!DOCTYPE svg PUBLIC "-//W3C//DTD SVG 1.1//EN" "http://www.w3.org/Graphics/SVG/1.1/DTD/svg11.dtd">
<svg width="100%" height="100%" viewBox="0 0 150 150" version="1.1" xmlns="http://www.w3.org/2000/svg" xmlns:xlink="http://www.w3.org/1999/xlink" xml:space="preserve" xmlns:serif="http://www.serif.com/" style="fill-rule:evenodd;clip-rule:evenodd;stroke-linejoin:round;stroke-miterlimit:2;">
    <g transform="matrix(1,0,0,1,5.58782,0)">
        <path d="M43.099,91.981L17.084,105.867L70.555,137.5L121.74,107.445L96.826,92.971L70.555,107.816L43.099,91.981Z" style="fill:rgb(252,54,91);"/>
        <path d="M43.099,91.981L70.555,107.816L96.826,92.971L121.74,107.445L70.555,137.5L17.084,105.867L43.099,91.981ZM43.021,96.746L25.583,106.054L70.563,132.663L113.479,107.464L96.798,97.773L70.534,112.614L43.021,96.746Z" style="fill:rgb(252,54,91);"/>
    </g>
    <g transform="matrix(1,0,0,1,5.58782,0)">
        <path d="M19.369,42.862L70.709,73.017L121.74,41.625L71.173,12.5L19.369,42.862Z" style="fill:rgb(252,54,91);"/>
    </g>
    <g transform="matrix(1,0,0,1,5.58782,0)">
        <path d="M19.369,46.554L68.105,75.84L68.176,103.67L18.023,74.057L19.369,46.554Z" style="fill:rgb(252,54,91);"/>
        <path d="M19.369,46.554L68.105,75.84L68.176,103.67L18.023,74.057L19.369,46.554ZM23.19,53.711L22.307,71.748L63.991,96.36L63.944,78.201L23.19,53.711Z" style="fill:rgb(252,54,91);"/>
    </g>
    <g transform="matrix(1,0,0,1,5.58782,0)">
        <path d="M72.16,75.614L98.249,59.858L121.74,74.815L71.912,103.67L72.16,75.614Z" style="fill:rgb(252,54,91);"/>
        <path d="M72.16,75.614L98.249,59.858L121.74,74.815L71.912,103.67L72.16,75.614ZM76.306,77.978L76.143,96.405L113.717,74.646L98.191,64.761L76.306,77.978Z" style="fill:rgb(252,54,91);"/>
    </g>
    <g transform="matrix(1,0,0,1,5.58782,0)">
        <path d="M99.492,90.672L121.74,77.652L121.74,103.032L99.492,90.672Z" style="fill:rgb(252,54,91);"/>
        <path d="M99.492,90.672L121.74,77.652L121.74,103.032L99.492,90.672ZM107.903,90.578L117.574,95.951L117.574,84.918L107.903,90.578Z" style="fill:rgb(252,54,91);"/>
    </g>
</svg>
